<?xml version="1.0" standalone="no"?><!DOCTYPE svg PUBLIC "-//W3C//DTD SVG 1.1//EN" "http://www.w3.org/Graphics/SVG/1.1/DTD/svg11.dtd"><svg t="1677761763035" class="icon" viewBox="0 0 1024 1024" version="1.1" xmlns="http://www.w3.org/2000/svg" p-id="15938" data-darkreader-inline-fill="" xmlns:xlink="http://www.w3.org/1999/xlink" width="200" height="200"><path d="M164.5 1013.4h694.9c85.2 0 154.9-69.7 154.9-154.9v-693c0-85.2-69.7-154.9-154.9-154.9H164.5C79.4 10.6 9.7 80.3 9.7 165.5v694.9c0 83.3 69.7 153 154.8 153z" fill="#548FBE" p-id="15939" data-darkreader-inline-fill="" style="--darkreader-inline-fill:#35658c;"></path><path d="M859.5 1023h-695C73.6 1023 0 949.5 0 858.5v-693C0 74.5 73.6 1 164.5 1h694.9c91 0 164.5 73.6 164.5 164.5v694.9c0.1 89.1-73.5 162.6-164.4 162.6zM164.5 20.3c-79.4 0-145.2 65.8-145.2 145.2v694.9c0 79.4 65.8 145.2 145.2 145.2h694.9c79.4 0 145.2-65.8 145.2-145.2V165.5c0-79.4-65.8-145.2-145.2-145.2H164.5z" fill="#E6E6E5" p-id="15940" data-darkreader-inline-fill="" style="--darkreader-inline-fill:#262a2b;"></path><path d="M511 1013.4h348.4c85.2 0 152.9-67.8 152.9-152.9V163.6c0-85.2-67.8-152.9-152.9-152.9H511v1002.7z" fill="#82B2DB" p-id="15941" data-darkreader-inline-fill="" style="--darkreader-inline-fill:#214d73;"></path><path d="M861.4 1023h-360V1h358.1c89 0 162.6 73.6 162.6 162.6v698.8c1.9 87.1-71.7 160.6-160.7 160.6z m-340.7-19.3h338.8c79.4 0 143.2-63.9 143.2-143.2V163.6c0-79.4-63.9-143.2-143.2-143.2H520.7v983.3z" fill="#E6E6E5" p-id="15942" data-darkreader-inline-fill="" style="--darkreader-inline-fill:#262a2b;"></path><path d="M628.4 396.2h254.8v61.3H628.4zM127.3 771.3h254.8v61.3H127.3zM127.3 289h254.8v61.3H127.3z" fill="#FFFFFF" p-id="15943" data-darkreader-inline-fill="" style="--darkreader-inline-fill:#181a1b;"></path><path d="M224 192.3h61.3v254.8H224zM628.4 562.3h254.8v61.3H628.4z" fill="#FFFFFF" p-id="15944" data-darkreader-inline-fill="" style="--darkreader-inline-fill:#181a1b;"></path></svg>